<svg xmlns="http://www.w3.org/2000/svg" viewBox="0 0 54.06 48.22"><defs><style>.a{fill:#ffffff;}</style></defs><title>logo</title><path class="a" d="M23.9,47.39L12.4,27.18l-5,8.69A23.11,23.11,0,0,0,23.9,47.39Z" transform="translate(-0.47 -3.39)"/><path class="a" d="M47.21,36.62L41.8,27.18,30.14,47.52A23.09,23.09,0,0,0,47.21,36.62Z" transform="translate(-0.47 -3.39)"/><path class="a" d="M27.1,29.18a51.94,51.94,0,0,1-12-1.3L26.51,47.65l1,0h0.18L39.1,27.88A57.31,57.31,0,0,1,27.1,29.18Z" transform="translate(-0.47 -3.39)"/><path class="a" d="M10.4,26.48a19.81,19.81,0,0,1-5.95-3.3c0,0.46,0,.93,0,1.4a23,23,0,0,0,1.86,9.08Z" transform="translate(-0.47 -3.39)"/><path class="a" d="M43.8,26.48l4.59,8a23,23,0,0,0,2.21-9.86c0-.71,0-1.4-0.1-2.09A17.4,17.4,0,0,1,43.8,26.48Z" transform="translate(-0.47 -3.39)"/><path class="a" d="M9.81,6.66l0.1,0.1,5.17,2.9A28.51,28.51,0,0,0,8,12.21a22.94,22.94,0,0,0-3.23,8.26c3.08,3.67,11.9,6.31,22.32,6.31,11.25,0,20.62-3.07,22.94-7.2A22.94,22.94,0,0,0,47.46,13a20.66,20.66,0,0,0-4.84-2.31l7-3.9,0.1-.1a2,2,0,0,0,.4-2.5,1.89,1.89,0,0,0-2.5-.5l-8.68,6A53.93,53.93,0,0,0,27.1,8.38a57.76,57.76,0,0,0-7.69.5l-7.6-5.22a1.89,1.89,0,0,0-2.5.5A1.72,1.72,0,0,0,9.81,6.66ZM27.1,11.28a44.27,44.27,0,0,1,8.34.75l-2.52,1.73a1,1,0,0,0-.3,1.3,1.11,1.11,0,0,0,1.4.4l4.68-2.61c3.62,1.15,5.91,2.83,5.91,4.72,0,3.5-7.8,6.3-17.5,6.3s-17.5-2.8-17.5-6.3c0-2.47,3.89-4.58,9.57-5.62l6.24,3.5a1.11,1.11,0,0,0,1.4-.4,1,1,0,0,0-.3-1.3l-3.38-2.32C24.41,11.34,25.73,11.28,27.1,11.28Z" transform="translate(-0.47 -3.39)"/><path class="a" d="M54.53,24.58a26.9,26.9,0,0,0-1.45-8.72L50.4,14.5A25,25,0,1,1,2.47,24.58,24.88,24.88,0,0,1,4.93,13.77L2.19,15.09A27,27,0,1,0,54.53,24.58Z" transform="translate(-0.47 -3.39)"/></svg>
