<?xml version="1.0" standalone="no"?>
<!DOCTYPE svg PUBLIC "-//W3C//DTD SVG 20010904//EN"
 "http://www.w3.org/TR/2001/REC-SVG-20010904/DTD/svg10.dtd">
<svg version="1.0" xmlns="http://www.w3.org/2000/svg"
 width="16.000000pt" height="16.000000pt" viewBox="0 0 16.000000 16.000000"
 preserveAspectRatio="xMidYMid meet">
<metadata>
Created by potrace 1.11, written by Peter Selinger 2001-2013
</metadata>
<g transform="translate(0.000000,16.000000) scale(0.006154,-0.006154)"
fill="#000000" stroke="none">
<path d="M450 2411 c-23 -22 -28 -35 -25 -61 6 -47 24 -62 158 -137 l120 -66
-114 -37 c-183 -60 -209 -76 -253 -159 -45 -85 -81 -179 -99 -261 l-14 -61 49
-43 c74 -65 201 -125 353 -169 489 -140 1185 -99 1549 91 68 35 167 117 187
153 11 22 -33 164 -82 264 -35 68 -71 96 -191 145 l-67 26 151 85 c175 97 205
120 210 157 5 33 -16 78 -41 92 -40 21 -75 10 -161 -50 -47 -32 -142 -97 -211
-145 l-126 -86 -89 15 c-130 22 -151 24 -249 32 -159 13 -507 6 -567 -12 -10
-3 -88 45 -206 126 -212 145 -231 152 -282 101z m1045 -355 c44 -4 97 -11 117
-15 20 -5 39 -6 43 -3 3 3 5 1 5 -5 0 -5 -25 -27 -55 -48 -65 -44 -80 -66 -65
-94 21 -40 46 -35 171 34 l121 66 66 -26 c106 -43 184 -104 203 -162 47 -144
-209 -279 -606 -320 -151 -16 -419 -8 -557 17 -165 29 -216 45 -325 97 -110
53 -166 125 -155 199 9 65 139 153 289 198 154 46 140 48 316 -49 160 -89 185
-96 206 -57 12 24 -3 58 -36 79 -15 10 -50 33 -78 53 l-49 35 34 5 c47 7 255
4 355 -4z"/>
<path d="M162 1917 c-61 -31 -63 -33 -82 -94 -72 -234 -75 -509 -9 -743 31
-108 127 -302 198 -398 253 -342 640 -531 1065 -518 146 4 154 5 271 32 357
83 675 340 840 679 96 196 128 331 129 540 1 161 -6 231 -35 341 -23 89 -25
93 -93 128 -62 33 -70 33 -52 -1 47 -92 87 -296 87 -441 -1 -191 -41 -364
-126 -532 -201 -399 -605 -650 -1050 -653 -48 -1 -180 10 -215 18 -14 3 -37 7
-52 10 -41 8 -186 59 -250 89 -159 73 -352 238 -456 390 -224 323 -274 724
-137 1091 19 49 33 90 32 91 -1 1 -30 -12 -65 -29z"/>
<path d="M2329 1489 c-25 -22 -94 -63 -152 -92 l-106 -53 66 -114 c36 -63 84
-146 106 -185 22 -38 41 -72 43 -74 10 -12 70 172 89 273 19 107 24 287 8 285
-5 0 -29 -18 -54 -40z"/>
<path d="M209 1468 c-1 -47 2 -126 6 -171 6 -53 43 -201 64 -250 l17 -40 97
167 c89 152 103 186 77 186 -17 0 -125 54 -180 90 -30 20 -61 39 -67 43 -9 6
-13 -1 -14 -25z"/>
<path d="M543 1243 c-152 -261 -193 -333 -193 -341 0 -18 108 -165 165 -223
151 -157 380 -282 574 -314 l44 -7 -33 58 c-18 33 -49 86 -68 119 -19 33 -44
76 -54 95 -193 343 -374 658 -383 668 -10 11 -20 1 -52 -55z"/>
<path d="M1809 1028 c-89 -156 -211 -368 -270 -472 -60 -103 -109 -193 -109
-198 0 -5 8 -7 18 -4 9 3 33 7 52 10 130 20 334 107 445 191 129 97 294 287
280 323 -12 33 -240 431 -247 431 -3 1 -79 -126 -169 -281z"/>
<path d="M724 1264 c3 -9 46 -84 95 -168 48 -83 99 -171 113 -196 67 -120 311
-536 318 -544 5 -5 20 -10 33 -12 26 -3 10 -29 312 496 132 229 171 296 238
408 l19 33 -48 -7 c-27 -3 -52 -8 -55 -10 -3 -1 -28 -6 -55 -9 -27 -4 -60 -8
-74 -11 -100 -18 -428 -25 -575 -12 -96 8 -210 24 -268 38 -57 13 -60 13 -53
-6z"/>
</g>
</svg>
